<?xml version="1.0" standalone="no"?>
<!DOCTYPE svg PUBLIC "-//W3C//DTD SVG 20010904//EN"
 "http://www.w3.org/TR/2001/REC-SVG-20010904/DTD/svg10.dtd">
<svg version="1.0" xmlns="http://www.w3.org/2000/svg"
 width="299.000000pt" height="168.000000pt" viewBox="0 0 299.000000 168.000000"
 preserveAspectRatio="xMidYMid meet">

<g transform="translate(0.000000,168.000000) scale(0.100000,-0.100000)"
fill="#000000" stroke="none">
<path d="M0 840 l0 -840 1495 0 1495 0 0 840 0 840 -1495 0 -1495 0 0 -840z
m1352 681 c2 -6 27 -11 56 -12 41 -2 52 -6 52 -20 0 -13 -9 -17 -42 -17 -24 0
-51 -3 -62 -7 -19 -8 -47 3 -53 22 -4 12 23 43 37 43 5 0 10 -4 12 -9z m188
-31 c5 0 11 4 14 8 9 14 66 12 66 -2 0 -20 -12 -27 -27 -15 -7 7 -13 7 -13 2
0 -6 -13 -10 -30 -11 -26 -1 -30 3 -29 26 1 17 3 21 6 10 2 -10 8 -18 13 -18z
m-39 11 c6 10 9 8 9 -8 0 -14 -6 -23 -15 -23 -9 0 -15 9 -14 23 0 12 3 16 6 8
5 -11 7 -11 14 0z m187 -8 c2 -8 -5 -13 -17 -13 -12 0 -21 6 -22 13 0 6 -4 3
-9 -8 -8 -19 -9 -19 -9 3 -1 20 3 23 26 20 14 -2 28 -9 31 -15z m-999 -350 c6
-21 11 -45 12 -53 1 -25 18 22 18 53 1 20 6 27 21 27 13 0 22 -9 26 -27 12
-55 17 -57 27 -10 6 29 14 47 23 47 17 0 17 -10 3 -83 -10 -50 -15 -57 -35
-57 -18 0 -26 8 -33 33 l-9 32 -7 -32 c-6 -25 -13 -33 -30 -33 -22 0 -32 22
-50 108 -10 48 21 43 34 -5z m191 17 c0 -13 5 -18 15 -14 26 10 45 -16 45 -62
0 -57 -27 -63 -32 -6 -4 46 -22 45 -26 -3 -2 -22 -8 -35 -18 -35 -11 0 -14 16
-14 70 0 56 3 70 15 70 8 0 15 -9 15 -20z m331 5 c-1 -15 -24 -12 -29 3 -3 9
2 13 12 10 10 -1 17 -7 17 -13z m-111 -10 c0 -8 7 -15 15 -15 8 0 15 -4 15
-10 0 -5 -7 -10 -15 -10 -9 0 -15 -9 -15 -25 0 -16 6 -25 15 -25 8 0 15 -7 15
-15 0 -18 -34 -20 -48 -2 -10 11 -17 62 -13 100 1 21 31 23 31 2z m-72 -21
c18 -12 22 -24 20 -52 -3 -36 -4 -37 -43 -37 -35 0 -40 3 -43 25 -2 20 3 28
25 37 26 10 26 11 6 12 -23 1 -29 11 -16 24 10 11 27 8 51 -9z m273 6 c29 -16
24 -33 -8 -26 l-28 6 28 -15 c34 -20 36 -52 3 -61 -31 -7 -73 13 -57 29 7 7
15 6 26 -3 11 -9 19 -10 26 -3 7 7 0 12 -20 16 -33 7 -42 32 -19 55 15 15 24
15 49 2z m-81 -50 c0 -38 -4 -50 -15 -50 -11 0 -15 11 -15 40 0 22 -4 40 -10
40 -5 0 -10 5 -10 10 0 6 11 10 25 10 23 0 25 -3 25 -50z m-173 -265 l-2 -144
80 -3 c78 -3 80 -4 80 -28 l0 -25 -117 -3 -118 -3 0 176 0 175 39 0 39 0 -1
-145z m-327 -32 c0 -66 4 -91 17 -105 20 -22 41 -23 65 -1 15 13 18 32 18 105
l0 88 35 0 c39 0 36 13 37 -140 2 -120 2 -120 -37 -120 -25 0 -35 4 -35 16 0
13 -5 12 -26 -5 -15 -12 -37 -21 -50 -21 -21 0 -24 -5 -24 -35 0 -21 -5 -36
-12 -36 -7 -1 -23 -3 -35 -4 l-23 -2 0 173 0 174 35 0 35 0 0 -87z m726 68
c32 -20 64 -74 64 -110 0 -20 -5 -21 -105 -21 -58 0 -105 -4 -105 -9 0 -17 52
-51 77 -51 13 0 37 7 52 15 26 13 30 13 47 -6 18 -20 18 -21 -1 -35 -97 -71
-245 -9 -245 103 0 101 127 168 216 114z m273 3 c22 -16 24 -16 33 0 5 9 22
16 38 16 l30 0 0 -130 0 -130 -35 0 c-24 0 -35 5 -35 14 0 11 -9 10 -39 -7
-37 -20 -39 -20 -82 -4 -56 21 -81 61 -82 128 -2 99 98 164 172 113z m241 -11
l0 -22 25 24 c13 14 33 25 45 25 16 0 20 -6 20 -34 0 -32 -3 -35 -32 -38 -43
-4 -58 -35 -58 -120 l0 -68 -35 0 -35 0 0 130 0 131 35 -3 c29 -2 35 -6 35
-25z m209 10 c9 -17 10 -17 28 0 28 24 77 21 110 -7 27 -23 28 -28 31 -130 l4
-106 -36 0 -36 0 0 81 c0 95 -10 119 -48 119 -45 0 -52 -16 -52 -112 l0 -88
-35 0 -35 0 0 130 0 130 30 0 c17 0 33 -7 39 -17z"/>
<path d="M1322 1493 c2 -9 10 -18 18 -20 12 -4 13 -3 1 5 -7 5 -10 15 -7 21 4
6 2 11 -4 11 -6 0 -10 -8 -8 -17z"/>
<path d="M990 1074 c0 -17 22 -14 28 4 2 7 -3 12 -12 12 -9 0 -16 -7 -16 -16z"/>
<path d="M1322 808 c-27 -27 -13 -38 46 -38 68 0 79 6 55 32 -19 21 -82 25
-101 6z"/>
<path d="M1652 819 c-40 -15 -48 -102 -11 -131 49 -41 109 -9 109 57 0 58 -47
93 -98 74z"/>
</g>
</svg>
